<svg version="1.1" id="Layer_1" xmlns="http://www.w3.org/2000/svg" xmlns:xlink="http://www.w3.org/1999/xlink" x="0px" y="0px"
	 width="100%" viewBox="0 0 2501 2501" enable-background="new 0 0 2501 2501" xml:space="preserve">
<path fill="#4D5B8C" opacity="1.000000" stroke="none" 
	d="
M7.999984,2504.000000 
	C7.111328,2504.000000 6.222656,2504.000000 4.858894,2503.079102 
	C4.412170,2497.159424 4.465364,2492.160889 4.465387,2487.162354 
	C4.469071,1665.931152 4.468912,844.699829 4.469561,23.468609 
	C4.469564,19.802418 4.343196,16.129206 4.531438,12.472431 
	C4.663420,9.908543 5.230949,7.367075 5.720027,4.021759 
	C10.939369,4.021759 15.568786,4.021759 20.198202,4.021759 
	C843.095947,4.021761 1665.993652,4.021244 2488.891357,4.035732 
	C2493.218994,4.035808 2497.546631,4.247459 2501.902100,5.272722 
	C2501.953125,8.851634 2501.996582,11.518131 2501.996582,14.184627 
	C2501.999756,838.396606 2501.999756,1662.608521 2502.000000,2486.820557 
	C2502.000000,2487.487061 2502.003418,2488.153809 2501.998535,2488.820312 
	C2501.904053,2501.497070 2501.501465,2501.921143 2489.273193,2502.031738 
	C2485.940674,2502.061768 2482.607422,2502.038818 2479.274658,2502.038818 
	C1662.061646,2502.038818 844.848633,2502.039062 27.635633,2502.039307 
	C24.302795,2502.039307 20.944860,2501.791016 17.644196,2502.118164 
	C14.399182,2502.439941 11.212341,2503.348633 7.999984,2504.000000 
M646.092407,1886.909546 
	C662.005676,1901.110596 677.445251,1915.887817 693.906433,1929.422485 
	C838.519226,2048.327148 1004.288391,2115.002197 1190.925781,2129.437256 
	C1249.913208,2133.999512 1308.793457,2131.912598 1367.504150,2124.341797 
	C1440.882324,2114.879883 1512.034180,2096.789795 1580.525024,2068.886719 
	C1759.686890,1995.895996 1900.678833,1877.182495 2002.709595,1712.891724 
	C2080.897705,1586.992432 2123.177490,1449.392334 2131.554199,1301.524902 
	C2134.479492,1249.886719 2132.773193,1198.284302 2126.479248,1146.836304 
	C2118.968506,1085.439575 2105.661621,1025.390503 2085.163330,967.075317 
	C2020.883911,784.207397 1909.027344,637.244629 1749.315063,527.528320 
	C1612.565552,433.586639 1460.661865,383.499725 1294.866089,375.444000 
	C1214.456299,371.537018 1135.012573,378.536682 1056.724121,396.804382 
	C895.131104,434.510376 755.016724,511.792175 636.893188,628.288391 
	C448.975769,813.617126 355.070496,1071.525146 379.482178,1334.162109 
	C385.800140,1402.134766 399.519958,1468.476807 421.395538,1533.107666 
	C467.335327,1668.835571 542.232666,1786.248657 646.092407,1886.909546 
z"/>
<path fill="#ACB3CA" opacity="1.000000" stroke="none" 
	d="
M2501.874268,4.360307 
	C2497.546631,4.247459 2493.218994,4.035808 2488.891357,4.035732 
	C1665.993652,4.021244 843.095947,4.021761 20.198202,4.021759 
	C15.568786,4.021759 10.939369,4.021759 5.720027,4.021759 
	C5.230949,7.367075 4.663420,9.908543 4.531438,12.472431 
	C4.343196,16.129206 4.469564,19.802418 4.469561,23.468609 
	C4.468912,844.699829 4.469071,1665.931152 4.465387,2487.162354 
	C4.465364,2492.160889 4.412170,2497.159424 4.191877,2503.079102 
	C3.333283,2503.666992 2.112351,2503.368652 2.088856,2502.994873 
	C1.921998,2500.339355 2.000000,2497.668213 2.000000,2495.002197 
	C2.000000,1664.167969 2.000000,833.333679 2.000000,2.000000 
	C835.999939,2.000000 1670.000000,2.000000 2503.467529,3.084222 
	C2502.581299,4.232398 2502.227783,4.296352 2501.874268,4.360307 
z"/>
<path fill="#66729C" opacity="1.000000" stroke="none" 
	d="
M2501.902100,5.272722 
	C2502.227783,4.296352 2502.581299,4.232398 2503.467529,4.084222 
	C2504.000000,837.187500 2504.000000,1670.375000 2504.000000,2504.000000 
	C1672.624878,2504.000000 841.249756,2504.000000 8.937299,2504.000000 
	C11.212341,2503.348633 14.399182,2502.439941 17.644196,2502.118164 
	C20.944860,2501.791016 24.302795,2502.039307 27.635633,2502.039307 
	C844.848633,2502.039062 1662.061646,2502.038818 2479.274658,2502.038818 
	C2482.607422,2502.038818 2485.940674,2502.061768 2489.273193,2502.031738 
	C2501.501465,2501.921143 2501.904053,2501.497070 2501.998535,2488.820312 
	C2502.003418,2488.153809 2502.000000,2487.487061 2502.000000,2486.820557 
	C2501.999756,1662.608521 2501.999756,838.396606 2501.996582,14.184627 
	C2501.996582,11.518131 2501.953125,8.851634 2501.902100,5.272722 
z"/>
<path fill="#FFFFFF" opacity="1.000000" stroke="none" 
	d="
M645.586914,1886.413818 
	C542.232666,1786.248657 467.335327,1668.835571 421.395538,1533.107666 
	C399.519958,1468.476807 385.800140,1402.134766 379.482178,1334.162109 
	C355.070496,1071.525146 448.975769,813.617126 636.893188,628.288391 
	C755.016724,511.792175 895.131104,434.510376 1056.724121,396.804382 
	C1135.012573,378.536682 1214.456299,371.537018 1294.866089,375.444000 
	C1460.661865,383.499725 1612.565552,433.586639 1749.315063,527.528320 
	C1909.027344,637.244629 2020.883911,784.207397 2085.163330,967.075317 
	C2105.661621,1025.390503 2118.968506,1085.439575 2126.479248,1146.836304 
	C2132.773193,1198.284302 2134.479492,1249.886719 2131.554199,1301.524902 
	C2123.177490,1449.392334 2080.897705,1586.992432 2002.709595,1712.891724 
	C1900.678833,1877.182495 1759.686890,1995.895996 1580.525024,2068.886719 
	C1512.034180,2096.789795 1440.882324,2114.879883 1367.504150,2124.341797 
	C1308.793457,2131.912598 1249.913208,2133.999512 1190.925781,2129.437256 
	C1004.288391,2115.002197 838.519226,2048.327148 693.906433,1929.422485 
	C677.445251,1915.887817 662.005676,1901.110596 645.586914,1886.413818 
M904.168152,1199.000000 
	C904.168152,1368.176636 904.168152,1537.353149 904.168152,1706.313477 
	C918.295288,1708.452148 1060.906738,1707.870117 1068.574585,1705.642578 
	C1068.574585,1698.243652 1068.574585,1690.610229 1068.574585,1682.976807 
	C1068.574585,1675.310669 1068.574585,1667.644653 1068.574585,1659.978516 
	C1068.574585,1652.312378 1068.355225,1644.638306 1068.637817,1636.982544 
	C1068.907104,1629.688599 1067.377930,1622.207275 1070.060181,1613.996704 
	C1071.978516,1616.005005 1073.154541,1617.136108 1074.218506,1618.364502 
	C1111.841064,1661.809204 1159.198486,1689.294312 1214.319946,1704.275635 
	C1252.955566,1714.776489 1292.246948,1717.913818 1332.123413,1716.414917 
	C1390.197876,1714.231689 1445.536743,1701.496948 1497.261475,1674.531250 
	C1584.682007,1628.956177 1640.969849,1557.549316 1670.020020,1464.196655 
	C1686.446289,1411.410522 1690.492188,1357.154297 1686.407227,1302.103149 
	C1682.309937,1246.882935 1668.654175,1194.477173 1642.142212,1145.682495 
	C1604.907837,1077.153320 1550.720093,1026.634888 1479.546997,994.882812 
	C1407.298584,962.650940 1331.575928,954.337219 1253.726807,965.911255 
	C1187.778809,975.716003 1130.806030,1004.119812 1083.880371,1051.933105 
	C1082.380981,1053.460938 1080.674927,1054.785767 1077.056763,1057.976196 
	C1077.056763,1024.675537 1077.056641,993.851685 1077.056641,963.027771 
	C1077.056641,931.696716 1077.056641,900.365662 1077.056641,869.034607 
	C1077.056641,838.036865 1077.099854,807.039062 1077.044556,776.041382 
	C1076.988892,744.858643 1077.294922,713.668274 1076.848633,682.550049 
	C1018.672241,682.550049 961.850342,682.550049 904.168152,682.550049 
	C904.168152,854.497375 904.168152,1025.748657 904.168152,1199.000000 
z"/>
<path fill="#4E5C8D" opacity="1.000000" stroke="none" 
	d="
M904.168152,1198.000000 
	C904.168152,1025.748657 904.168152,854.497375 904.168152,682.550049 
	C961.850342,682.550049 1018.672241,682.550049 1076.848633,682.550049 
	C1077.294922,713.668274 1076.988892,744.858643 1077.044556,776.041382 
	C1077.099854,807.039062 1077.056641,838.036865 1077.056641,869.034607 
	C1077.056641,900.365662 1077.056641,931.696716 1077.056641,963.027771 
	C1077.056641,993.851685 1077.056763,1024.675537 1077.056763,1057.976196 
	C1080.674927,1054.785767 1082.380981,1053.460938 1083.880371,1051.933105 
	C1130.806030,1004.119812 1187.778809,975.716003 1253.726807,965.911255 
	C1331.575928,954.337219 1407.298584,962.650940 1479.546997,994.882812 
	C1550.720093,1026.634888 1604.907837,1077.153320 1642.142212,1145.682495 
	C1668.654175,1194.477173 1682.309937,1246.882935 1686.407227,1302.103149 
	C1690.492188,1357.154297 1686.446289,1411.410522 1670.020020,1464.196655 
	C1640.969849,1557.549316 1584.682007,1628.956177 1497.261475,1674.531250 
	C1445.536743,1701.496948 1390.197876,1714.231689 1332.123413,1716.414917 
	C1292.246948,1717.913818 1252.955566,1714.776489 1214.319946,1704.275635 
	C1159.198486,1689.294312 1111.841064,1661.809204 1074.218506,1618.364502 
	C1073.154541,1617.136108 1071.978516,1616.005005 1070.060181,1613.996704 
	C1067.377930,1622.207275 1068.907104,1629.688599 1068.637817,1636.982544 
	C1068.355225,1644.638306 1068.574585,1652.312378 1068.574585,1659.978516 
	C1068.574585,1667.644653 1068.574585,1675.310669 1068.574585,1682.976807 
	C1068.574585,1690.610229 1068.574585,1698.243652 1068.574585,1705.642578 
	C1060.906738,1707.870117 918.295288,1708.452148 904.168152,1706.313477 
	C904.168152,1537.353149 904.168152,1368.176636 904.168152,1198.000000 
M1382.703125,1124.141968 
	C1343.488892,1108.103027 1302.691772,1104.078003 1261.089722,1109.890869 
	C1183.387573,1120.748169 1127.012817,1161.917358 1095.391724,1233.639648 
	C1066.717651,1298.677246 1066.528687,1365.969116 1090.844238,1432.363770 
	C1110.054443,1484.817627 1145.483521,1524.100342 1196.545898,1548.159058 
	C1239.450928,1568.374023 1284.747559,1573.500366 1331.160889,1566.183838 
	C1413.963379,1553.131104 1469.481079,1505.843750 1498.183838,1427.685425 
	C1515.233276,1381.259033 1516.356567,1332.891479 1507.577515,1284.725586 
	C1494.051880,1210.516968 1453.233643,1156.488525 1382.703125,1124.141968 
z"/>
<path fill="#FFFFFF" opacity="1.000000" stroke="none" 
	d="
M1383.414551,1124.434814 
	C1453.233643,1156.488525 1494.051880,1210.516968 1507.577515,1284.725586 
	C1516.356567,1332.891479 1515.233276,1381.259033 1498.183838,1427.685425 
	C1469.481079,1505.843750 1413.963379,1553.131104 1331.160889,1566.183838 
	C1284.747559,1573.500366 1239.450928,1568.374023 1196.545898,1548.159058 
	C1145.483521,1524.100342 1110.054443,1484.817627 1090.844238,1432.363770 
	C1066.528687,1365.969116 1066.717651,1298.677246 1095.391724,1233.639648 
	C1127.012817,1161.917358 1183.387573,1120.748169 1261.089722,1109.890869 
	C1302.691772,1104.078003 1343.488892,1108.103027 1383.414551,1124.434814 
z"/>
</svg>